<?xml version="1.0" encoding="iso-8859-1"?>
<!-- Generator: Adobe Illustrator 19.0.0, SVG Export Plug-In . SVG Version: 6.00 Build 0)  -->
<svg version="1.1" id="Layer_1" xmlns="http://www.w3.org/2000/svg" xmlns:xlink="http://www.w3.org/1999/xlink" x="0px" y="0px"
	 viewBox="0 0 512 512" style="enable-background:new 0 0 512 512;" xml:space="preserve">
<g>
	<g>
		<polygon points="207.441,213.34 255.996,298.332 304.55,213.34 		"/>
	</g>
</g>
<g>
	<g>
		<path d="M256,0C114.837,0,0,114.837,0,256s114.837,256,256,256s256-114.837,256-256S397.163,0,256,0z M359.851,202.581
			l-85.333,149.333c-3.797,6.656-10.88,10.752-18.517,10.752c-7.659,0-14.741-4.096-18.517-10.752l-85.333-149.333
			c-3.776-6.613-3.755-14.72,0.064-21.291c3.819-6.571,10.837-10.624,18.453-10.624h170.667c7.595,0,14.613,4.053,18.453,10.624
			C363.605,187.861,363.627,195.968,359.851,202.581z"/>
	</g>
</g>
<g>
</g>
<g>
</g>
<g>
</g>
<g>
</g>
<g>
</g>
<g>
</g>
<g>
</g>
<g>
</g>
<g>
</g>
<g>
</g>
<g>
</g>
<g>
</g>
<g>
</g>
<g>
</g>
<g>
</g>
</svg>
