<?xml version="1.0" encoding="UTF-8"?><svg xmlns="http://www.w3.org/2000/svg" xmlns:xlink="http://www.w3.org/1999/xlink" width="112.5" zoomAndPan="magnify" viewBox="0 0 112.5 112.499997" height="112.499997" preserveAspectRatio="xMidYMid meet" version="1.0"><defs><clipPath id="clip-0"><path d="M 4.480469 4.480469 L 107.980469 4.480469 L 107.980469 107.980469 L 4.480469 107.980469 Z M 4.480469 4.480469 " clip-rule="nonzero"/></clipPath></defs><g clip-path="url(#clip-0)"><path fill="rgb(100%, 100%, 100%)" d="M 56.230469 4.480469 C 27.699219 4.480469 4.480469 27.695312 4.480469 56.230469 C 4.480469 84.769531 27.699219 107.980469 56.230469 107.980469 C 84.765625 107.980469 107.980469 84.769531 107.980469 56.230469 C 107.980469 27.695312 84.765625 4.480469 56.230469 4.480469 Z M 40.480469 78.730469 L 31.480469 78.730469 L 31.480469 44.980469 L 40.480469 44.980469 Z M 35.980469 38.230469 C 33.496094 38.230469 31.480469 36.21875 31.480469 33.730469 C 31.480469 31.246094 33.496094 29.230469 35.980469 29.230469 C 38.46875 29.230469 40.480469 31.246094 40.480469 33.730469 C 40.480469 36.21875 38.46875 38.230469 35.980469 38.230469 Z M 83.230469 78.730469 L 74.230469 78.730469 L 74.230469 61.855469 C 74.230469 57.527344 70.6875 53.980469 66.355469 53.980469 C 62.027344 53.980469 58.480469 57.527344 58.480469 61.855469 L 58.480469 78.730469 L 49.480469 78.730469 L 49.480469 44.980469 L 58.480469 44.980469 L 58.480469 49.066406 C 61.109375 46.542969 64.675781 44.980469 68.605469 44.980469 C 76.683594 44.980469 83.230469 51.53125 83.230469 59.605469 Z M 83.230469 78.730469 " fill-opacity="1" fill-rule="nonzero"/></g></svg>